<svg xmlns="http://www.w3.org/2000/svg" width="32" height="32" id="credit"><path fill="#e9eded" d="M5.071 9H26.93A1.07 1.07 0 0 1 28 10.072v12.857A1.07 1.07 0 0 1 26.929 24H5.07A1.07 1.07 0 0 1 4 22.93V10.072A1.07 1.07 0 0 1 5.071 9z"></path><path fill="#34485c" d="M4 11v3h24v-3H4z"></path><path fill="#cad1d8" d="M9 21H6v1h3v-1z"></path><path fill="#f8b84e" d="M23.6 18a2 2 0 0 1-2 2 2 2 0 0 1-2-2 2 2 0 0 1 2-2 2 2 0 0 1 2 2z"></path><path fill="#cad1d8" d="M13 21h-3v1h3v-1zm4 0h-3v1h3v-1zm4 0h-3v1h3v-1zm-4-4H6v2h11v-2z"></path><path fill="#f05542" d="M26 18a2 2 0 0 1-2 2 2 2 0 0 1-2-2 2 2 0 0 1 2-2 2 2 0 0 1 2 2z"></path></svg>