<svg xmlns="http://www.w3.org/2000/svg" xmlns:xlink="http://www.w3.org/1999/xlink" width="64" height="64" viewBox="0 0 16.933 16.933" id="credit-card"><defs><linearGradient id="b" x1=".268" x2="16.672" y1="-16.933" y2="-16.933" gradientTransform="translate(-.006 305.467)" gradientUnits="userSpaceOnUse" xlink:href="#a"></linearGradient><linearGradient id="a"><stop offset="0" stop-color="#ffda58"></stop><stop offset="1" stop-color="#ff9f26"></stop></linearGradient></defs><path fill="url(#b)" d="M.527 283.241a.265.265 0 0 0-.266.264v.795h14.82v-.795a.265.265 0 0 0-.267-.264zm-.266 1.588v1.059H15.08v-1.06Zm15.348.263v7.938H2.115v.53c0 .146.118.265.264.265h14.023c.146 0 .264-.12.264-.265v-8.201a.265.265 0 0 0-.264-.267zM.261 286.415v5.822c.001.146.12.264.266.264H15.08v-6.086zm10.32 1.619c.29 0 .561.081.794.22.233-.138.503-.22.793-.22.856 0 1.558.7 1.558 1.557s-.702 1.556-1.558 1.556c-.29 0-.56-.081-.793-.22-.233.139-.504.22-.793.22a1.56 1.56 0 0 1-1.557-1.556c0-.857.7-1.557 1.557-1.557zm0 .53c-.57 0-1.027.456-1.027 1.027 0 .57.457 1.027 1.028 1.027.57 0 1.027-.456 1.027-1.027 0-.57-.457-1.027-1.027-1.027zm1.587 0c-.129 0-.25.025-.363.068a1.547 1.547 0 0 1 0 1.918 1.025 1.025 0 0 0 1.393-.96c0-.57-.46-1.026-1.03-1.026zm-6.084.497c.353 0 .353.53 0 .53H2.379c-.353.007-.364-.523-.006-.53zm0 1.06c.36-.009.36.536 0 .528H2.379c-.346.01-.371-.529-.013-.529z" color="#000" font-family="sans-serif" font-weight="400" overflow="visible" transform="translate(0 -280.067)" style="line-height:normal;font-variant-ligatures:normal;font-variant-position:normal;font-variant-caps:normal;font-variant-numeric:normal;font-variant-alternates:normal;font-feature-settings:normal;text-indent:0;text-align:start;text-decoration-line:none;text-decoration-style:solid;text-decoration-color:#000;text-transform:none;text-orientation:mixed;shape-padding:0;isolation:auto;mix-blend-mode:normal"></path></svg>