<svg xmlns="http://www.w3.org/2000/svg" width="163.839" height="163.839" fill-rule="evenodd" clip-rule="evenodd" image-rendering="optimizeQuality" shape-rendering="geometricPrecision" text-rendering="geometricPrecision" viewBox="0 0 4335 4335" id="visa-card"><defs><linearGradient id="a" x1="2167.46" x2="2167.46" y1="3573.9" y2="845.69" gradientUnits="userSpaceOnUse"><stop offset="0" stop-color="#E5097F"></stop><stop offset="1" stop-color="#96336D"></stop></linearGradient><linearGradient id="b" x1="1115.54" x2="1649.92" y1="773.65" y2="3645.95" gradientUnits="userSpaceOnUse"><stop offset="0" stop-color="#E8388C"></stop><stop offset="1" stop-color="#97326D"></stop></linearGradient></defs><rect width="4267" height="2728" x="34" y="868" fill="#898989" rx="262" ry="262"></rect><rect width="4267" height="2728" x="34" y="846" fill="url(#a)" rx="262" ry="262"></rect><path fill="url(#b)" d="M296 3574h1369L2732 846H297c-144 0-262 118-262 262v2204c0 144 118 262 262 262z"></path><path fill="#2b2a29" d="M585 1407c-5-7-10-19-14-27-14-28-49-72-71-90-19-16-47-39-70-48 1 6 4 15 6 21l94 339h121l134-311c6-14 41-92 44-104H708l-108 276c-2 3-1 2-3 4-1-7-11-55-13-59zm954-104c0 11 12 61 15 76 6 24 11 50 17 75h-91l59-151zm-231 301c132 0 109 10 125-30 4-11 8-24 13-34h144c1 11 5 22 7 33 3 14 4 30 12 30 113 0 102 7 96-22-2-10-3-16-6-26-4-18-8-35-12-52l-47-212c-7-35-15-71-24-106-29 0-106-6-128 10-21 16-38 65-48 89-10 22-19 42-29 65-9 22-18 42-28 63-22 48-57 136-79 178-3 6-8 12 2 12zm-274-293v13c0 48 55 87 91 102 9 4 18 8 27 13 98 53-4 112-122 65-6-3-21-10-28-10-1 13-5 31-8 45l-7 46c0 11 91 23 112 23 61 0 107-4 154-36 63-43 92-142-7-202-36-22-94-37-94-69 0-42 104-42 159-13 1-17 15-72 15-91-31-15-77-17-115-17-81 0-178 49-178 131zm-231 290h114l61-363c1-9 3-17 4-25 2-9 4-17 4-28H872c0 14-55 323-61 363l-9 53z"></path><path fill="#2b2a29" d="M431 1241c23 10 51 33 70 48 22 18 57 62 71 90 4 8 9 20 14 27 0-12-27-132-31-154-14-70-18-67-117-67H313v7c0 5 4 4 25 10 24 7 75 27 93 39z"></path><path fill="#fefefe" d="M581 1402c-5-7-10-19-14-27-14-28-49-72-71-90-19-16-47-39-70-48 1 6 4 15 6 21l94 339h121l134-311c6-14 41-92 44-104H704l-108 276c-2 3-1 2-3 4-1-7-11-55-13-59zm954-104c0 11 12 61 15 76 6 24 11 50 17 75h-91l59-151zm-231 301c132 0 109 10 125-30 4-11 8-24 13-34h144c1 11 5 22 7 33 3 14 4 30 12 30 113 0 102 7 96-22-2-10-3-16-6-26-4-18-8-35-12-52l-47-212c-7-35-15-71-23-106-29 0-106-6-128 10-21 16-38 65-48 89-10 22-19 42-29 65-9 22-18 42-28 63-22 48-57 136-79 178-3 6-8 12 2 12zm-274-293v13c0 48 55 87 91 102 9 4 18 8 27 13 98 53-4 112-122 65-6-3-21-10-28-10-1 13-5 31-8 45l-7 46c0 11 91 23 112 23 61 0 107-4 154-36 63-43 92-142-7-202-36-22-94-37-94-69 0-42 104-42 159-13 1-17 15-72 15-91-31-15-77-17-115-17-81 0-178 49-178 131zm-231 290h115l61-363c1-9 3-17 4-25 2-9 4-17 4-28H869c0 14-55 323-61 363l-9 53z"></path><path fill="#c5c6c6" d="M426 1237c23 10 51 33 70 48 22 18 57 62 71 90 4 8 9 20 14 27 0-12-27-132-31-154-14-70-18-67-117-67H308v7c0 5 4 4 25 10 24 7 75 27 93 39z"></path><g><path fill="#e63d24" d="m3055 2904 6-26c33-8 82-12 94 19 4 12-11 86-12 109h-32c-1-7 1-8-1-13-8 5-22 21-49 15-37-8-35-63 3-79 17-7 40-7 60-7-1-31-41-21-69-16zm103 72c12 3 66 13 60-11-3-14-37-15-46-33-11-21 2-45 17-53 18-9 49-5 71-4l-6 27c-19-1-41-8-48 8-3 21 65 16 44 72-7 18-17 22-38 24-23 3-35 1-56-2l2-28zm-140 30h-35c4-22 8-43 12-65 3-17 10-52 10-67l-56 132h-31l-9-131c-6 10-22 110-25 130l-32 1c9-54 24-107 30-162 11-3 44-1 57-1l2 105c8-6 19-41 24-51 7-16 17-38 22-54h59c-9 52-24 109-28 163zm407 184c5-10 12-8 16-18-8 0-28 1-33-1-6-2-14-13-17-18h56c15 0 12 1 19-8 5-7 9-9 12-16h-109l-10-18 133-1c4-8 11-15 13-25h-160l-9-19h181l10-24h-198c-6-3-7-13-9-19l214-1 7-24h-57l-2 6c-7 5-28 2-38 2 6-43 18-83 23-132h33l-2 19c12-6 5-18 41-19l-13 36c-21 0-27 6-32 25h37l3-9c3-22 6-27 13-45l-1-15c-10-2-219-2-232 0l-1 7 20 1c-1 30-4 29-11 30h-15l-5 29 26 1c21-86 96-66 112-38 6 11 7 29 4 42-4 19 0 13-83 13-4 18 11 27 25 29 21 4 33-4 50-8l-5 30c-18 8-49 9-68 3-22-7-30-20-37-42-1-2-1-1-2-6v-4h-26c-3 10-3 17 1 24l21 1-7 27c-11 7-40 6-49-4-13-14 4-80 9-104 3-15 6-39 9-53h28c9 1 4-2 6 3h225c0-7-4-19-6-25h-220c1-7 2-16 8-19h206l-7-24h-192l7-19h175l-12-24h-151c2-6 8-17 14-20h124c-5-8-12-17-17-24h-92c4-7 9-14 14-19h55c-7-13-21-21-27-31-5-1-32-24-38-28-37-24-71-39-114-50-110-28-224-7-311 65-46 38-79 74-106 129-8 16-13 29-20 46-27 69-23 162 0 229 3 9 6 16 9 24 5 14 27 54 36 66 24 33 46 60 80 85 41 31 64 41 110 59 8 3 17 5 25 7 78 20 180 11 250-27 8-4 13-7 21-11 7-4 13-8 21-13 12-7 27-21 39-29z"></path><path fill="#ef7f1a" d="M4020 2986c10 8-4 28-16 22l-6-4v-2l1-18c-6 6-4 12-6 9l-2 2c2-26 28-20 28-9zm-340 301h-13c-21 0-42-2-62-6-41-7-90-26-123-48-8-5-14-8-21-13-9-7-30-21-37-30 5-10 12-8 16-18-8 0-28 1-33-1-6-2-14-13-17-18h56c15 0 12 1 19-8 5-7 9-9 12-16h-109l-10-18 133-1c4-8 11-15 13-25h-160l-9-19h181l10-24h-198c-6-3-7-13-9-19l214-1 7-24h-57l-2 6 5-29c4 3-1 1 5 3h52c11 24 60 41 93 25 2-17 5-21 7-33-21 4-34 14-57 1-15-9-21-28-16-49 8-33 24-49 57-46 15 1 18 5 30 7l4-30c-18-14-64-16-95 8-12 9-11 14-20 23l-1-15c-10-2-219-2-232 0l4-20h225c0-7-4-19-6-25h-220c1-7 2-16 8-19h206l-7-24h-192l7-19h175l-12-24h-151c2-6 8-17 14-20h124c-5-8-12-17-17-24h-92c4-7 9-14 14-19h55c-7-13-21-21-27-31l38-30c7-5 13-9 21-13 23-15 43-24 69-33 44-16 104-26 149-21 78 8 160 38 217 91 32 30 55 56 77 93 33 55 52 118 52 187 0 64-10 93-28 143-5 15-26 52-36 66-23 33-52 64-83 87-40 30-64 42-112 59l-41 11c-5 1-11 1-14 2-17 3-34 4-51 5zm80-299-1 18-33-1-1-11c-8 5-9 9-22 12-67 18-79-75 3-81h23l7-3c8-32-48-18-66-16 5-26 2-36 59-33 69 4 30 82 30 116zm11 17c7-43 20-87 24-132h33l-1 19c9-6 15-20 41-19-4 14-9 16-12 36-29 1-31 8-37 36-4 20-7 38-10 60h-38zm183-116c5-8 8-36 9-47h38c-7 44-26 120-29 163h-36l1-14-1 1-11 8c-32 17-71 1-71-48 0-70 58-90 87-73 6 4 7 7 13 11z"></path><path fill="#fefcfd" d="M3018 3006c4-54 19-111 28-163h-59c-5 16-15 38-22 54-4 10-16 45-24 51l-2-105c-14 0-46-2-57 1-7 55-21 108-30 162l32-1c2-20 19-120 25-130l9 131h31l56-132c0 15-7 50-10 67-3 22-8 43-12 65h35zM3890 2945c0-48 56-59 56-18 0 58-56 66-56 20v-2zm65-56c-6-3-7-7-13-11-29-17-87 2-87 73 0 49 39 65 71 48l11-8 1-1-1 14h36c3-43 21-118 29-163h-38c-2 11-5 38-9 47zM3115 2945c4 11-4 25-10 30-25 19-51-11-24-26 9-5 22-6 34-4zm-59-41c28-5 68-15 69 16-20 0-44 0-60 7-37 16-39 71-3 79 26 6 41-10 49-15 2 6 0 6 1 13h32c1-22 16-97 12-109-12-31-61-27-94-19l-6 26zM3732 2948c-1 19-15 42-38 33-13-5-19-38 38-33zm-6 46c3 4 2 3 2 11h30c-1-7-1-11 2-16 0-33 39-112-30-116-57-3-55 7-59 33 18-2 74-16 66 16l-7 3h-23c-82 6-70 100-3 81 13-4 14-7 22-12zM3366 2924c0-31 47-34 46-1-11 3-34 2-46 1zm-37 10-1 28c7 23 15 35 37 42 19 6 50 5 68-3l5-30c-17 5-29 12-50 8-14-2-30-11-25-29 84 0 79 6 83-13 3-13 3-31-4-42-16-28-91-48-112 38z"></path><path fill="#fefcfd" d="M3548 2881c-7 18-10 23-13 45l1 28 8 23c11 24 60 41 93 25 2-17 5-21 7-33-21 4-34 14-57 1-15-9-21-28-16-49 8-33 24-49 57-46 15 1 18 5 30 7l4-30c-18-14-64-16-95 8-12 9-11 14-20 23zM3158 2976l-2 28c22 3 33 5 56 2 21-3 32-7 38-24 21-56-47-51-44-72 7-16 29-9 48-8l6-27c-22-1-53-6-71 4-15 8-28 33-17 53 9 18 43 19 46 33 6 25-47 14-60 11zM3300 2951l3-19 5-29c4 0 12 1 15 0 7-1 9 0 11-30l-20-1 1-7 4-20c-2-5 3-2-6-3h-28c-4 13-6 37-9 53-5 25-22 91-9 104 9 9 38 11 49 4l7-27-21-1c-5-7-4-14-1-24zM3482 3004l5-29 4-21 4-20c5-19 11-25 32-25l13-36c-35 1-28 13-41 19l2-19h-33c-5 49-17 89-23 132 10 0 31 3 38-2zM3772 3006h38c3-22 7-40 10-60 5-28 8-34 37-36 2-20 8-22 12-36-26-1-32 12-41 19l1-19h-33c-4 45-17 89-24 132z"></path><path fill="#ef7f1a" d="M3890 2945v2c0 46 56 38 56-20 0-41-56-30-56 18z"></path><path fill="#e63d24" d="M3115 2945c-12-2-25-1-34 4-27 15-1 45 24 26 6-5 14-19 10-30z"></path><path fill="#ef7f1a" d="M3732 2948c-57-6-51 27-38 33 23 9 37-13 38-33z"></path><path fill="#e63d24" d="M3486 2975c4 3-1 1 5 3h52l-8-23h-45l-4 21zM3366 2924c12 1 35 3 46-1 1-33-45-30-46 1z"></path><path fill="#ed7b1b" d="m3495 2934-4 20h44v-28l-3 9zM3300 2951h26v4c1 5 1 4 2 6l1-28-26-1-3 19z"></path><path fill="#f9bd84" d="M4004 3008c-5-5 6 0-4-4l3-2-3-18 12 2 3-1 1-1c0 5-1 3 4 2-1-11-26-17-28 9 1-1 1-2 2-2 3 4 0-3 6-9l-1 18v2l6 4z"></path><path fill="#fde6cd" d="M4012 2986c0 4 1 7-5 7-6-1-4-2-4-8l9 1zm-9 16v-7c10 1 3-2 8 4 2 3 3 5 5 7l-12 2c12 6 27-14 16-22 0 4 1 6 0 9-1 5-1 4-3 7-8-9-1-5-2-17l-3 1-12-2 3 18z"></path><path fill="#f0811a" d="m4003 3003-3 2c10 4-1-1 4 4l12-2c-1-2-2-4-5-7-5-5 2-3-8-4v7z"></path><path fill="#fbca9a" d="m3726 2993 1 11 33 1 1-18c-3 5-3 9-2 16h-30c0-8 0-7-2-11z"></path><path fill="#f0811a" d="M4020 2986c-5 1-4 3-4-2l-1 1c1 12-6 7 2 17 2-3 3-1 3-7v-9z"></path><path fill="#f0831f" d="m4012 2986-9-1c0 6-2 7 4 8s5-3 5-7z"></path></g></svg>